<?xml version="1.0" encoding="utf-8" standalone="no"?>
<!DOCTYPE svg PUBLIC "-//W3C//DTD SVG 1.1//EN"
  "http://www.w3.org/Graphics/SVG/1.1/DTD/svg11.dtd">
<!-- Created with matplotlib (https://matplotlib.org/) -->
<svg height="432pt" version="1.1" viewBox="0 0 936 432" width="936pt" xmlns="http://www.w3.org/2000/svg" xmlns:xlink="http://www.w3.org/1999/xlink">
 <defs>
  <style type="text/css">
*{stroke-linecap:butt;stroke-linejoin:round;}
  </style>
 </defs>
 <g id="figure_1">
  <g id="patch_1">
   <path d="M 0 432 
L 936 432 
L 936 0 
L 0 0 
z
" style="fill:#ffffff;"/>
  </g>
  <g id="axes_1">
   <g id="patch_2">
    <path d="M 51.925 382.2 
L 771.85 382.2 
L 771.85 15.8 
L 51.925 15.8 
z
" style="fill:#ffffff;"/>
   </g>
   <g id="PolyCollection_1">
    <path clip-path="url(#p1c3f18a4e4)" d="M 51.925 382.061313 
L 51.925 336.661714 
L 74.422656 332.893029 
L 96.920312 329.4384 
L 119.417969 308.815314 
L 141.915625 287.808381 
L 164.413281 280.061638 
L 186.910937 273.222171 
L 209.408594 266.103543 
L 231.90625 245.585143 
L 254.403906 236.163429 
L 276.901562 222.903238 
L 299.399219 218.646019 
L 321.896875 210.934171 
L 344.394531 195.336 
L 366.892187 176.771733 
L 389.389844 164.314133 
L 411.8875 151.542476 
L 434.385156 143.830629 
L 456.882812 130.221486 
L 479.380469 118.775848 
L 501.878125 104.992229 
L 524.375781 96.303314 
L 546.873438 88.033143 
L 569.371094 80.600457 
L 591.86875 70.655314 
L 614.366406 61.2336 
L 636.864062 51.218667 
L 659.361719 44.274514 
L 681.859375 36.3184 
L 704.357031 29.688305 
L 726.854687 22.639467 
L 749.352344 16.183848 
L 771.85 9.902705 
L 794.347656 4.528838 
L 816.845312 0.535516 
L 839.342969 -4.150136 
L 861.840625 -7.848881 
L 884.338281 -10.880464 
L 906.835938 -13.949072 
L 929.333594 -17.152689 
L 951.83125 -18.278768 
L 974.328906 -17.873366 
L 996.826563 -17.021173 
L 1019.324219 -15.646944 
L 1041.821875 -15.336121 
L 1064.319531 -12.256866 
L 1086.817187 -2.832976 
L 1109.314844 19.355011 
L 1131.8125 71.22527 
L 1154.310156 69.887619 
L 1176.807812 68.957079 
L 1199.305469 67.793905 
L 1221.803125 66.456254 
L 1244.300781 364.752381 
L 1266.798437 364.752381 
L 1289.296094 364.752381 
L 1311.79375 364.752381 
L 1334.291406 364.752381 
L 1356.789062 364.752381 
L 1379.286719 364.752381 
L 1379.286719 364.752381 
L 1379.286719 364.752381 
L 1356.789062 364.752381 
L 1334.291406 364.752381 
L 1311.79375 364.752381 
L 1289.296094 364.752381 
L 1266.798437 364.752381 
L 1244.300781 364.752381 
L 1221.803125 389.36522 
L 1199.305469 389.110424 
L 1176.807812 389.004924 
L 1154.310156 388.862853 
L 1131.8125 388.676307 
L 1109.314844 343.964338 
L 1086.817187 320.126662 
L 1064.319531 309.101959 
L 1041.821875 304.223317 
L 1019.324219 302.175056 
L 996.826563 300.272483 
L 974.328906 297.601189 
L 951.83125 295.162746 
L 929.333594 294.809444 
L 906.835938 296.08642 
L 884.338281 297.681545 
L 861.840625 298.716167 
L 839.342969 299.886884 
L 816.845312 301.093152 
L 794.347656 302.427813 
L 771.85 304.840504 
L 749.352344 307.28726 
L 726.854687 310.036053 
L 704.357031 312.820597 
L 681.859375 315.432831 
L 659.361719 318.244995 
L 636.864062 320.921864 
L 614.366406 324.746538 
L 591.86875 328.997056 
L 569.371094 333.56832 
L 546.873438 336.779936 
L 524.375781 339.72959 
L 501.878125 343.179914 
L 479.380469 349.1113 
L 456.882812 354.96589 
L 434.385156 359.011385 
L 411.8875 360.797147 
L 389.389844 363.342436 
L 366.892187 368.719297 
L 344.394531 375.405584 
L 321.896875 381.590986 
L 299.399219 379.456923 
L 276.901562 378.798407 
L 254.403906 379.772116 
L 231.90625 385.090866 
L 209.408594 388.353193 
L 186.910937 383.829166 
L 164.413281 379.771909 
L 141.915625 375.639843 
L 119.417969 380.24051 
L 96.920312 387.122124 
L 74.422656 384.646686 
L 51.925 382.061313 
z
" style="fill:#b22222;fill-opacity:0.25;stroke:#b22222;stroke-opacity:0.25;"/>
   </g>
   <g id="PolyCollection_2">
    <path clip-path="url(#p1c3f18a4e4)" d="M 51.925 291.262115 
L 51.925 336.661714 
L 74.422656 332.893029 
L 96.920312 329.4384 
L 119.417969 308.815314 
L 141.915625 287.808381 
L 164.413281 280.061638 
L 186.910937 273.222171 
L 209.408594 266.103543 
L 231.90625 245.585143 
L 254.403906 236.163429 
L 276.901562 222.903238 
L 299.399219 218.646019 
L 321.896875 210.934171 
L 344.394531 195.336 
L 366.892187 176.771733 
L 389.389844 164.314133 
L 411.8875 151.542476 
L 434.385156 143.830629 
L 456.882812 130.221486 
L 479.380469 118.775848 
L 501.878125 104.992229 
L 524.375781 96.303314 
L 546.873438 88.033143 
L 569.371094 80.600457 
L 591.86875 70.655314 
L 614.366406 61.2336 
L 636.864062 51.218667 
L 659.361719 44.274514 
L 681.859375 36.3184 
L 704.357031 29.688305 
L 726.854687 22.639467 
L 749.352344 16.183848 
L 771.85 9.902705 
L 794.347656 4.528838 
L 816.845312 0.535516 
L 839.342969 -4.150136 
L 861.840625 -7.848881 
L 884.338281 -10.880464 
L 906.835938 -13.949072 
L 929.333594 -17.152689 
L 951.83125 -18.278768 
L 974.328906 -17.873366 
L 996.826563 -17.021173 
L 1019.324219 -15.646944 
L 1041.821875 -15.336121 
L 1064.319531 -12.256866 
L 1086.817187 -2.832976 
L 1109.314844 19.355011 
L 1131.8125 71.22527 
L 1154.310156 69.887619 
L 1176.807812 68.957079 
L 1199.305469 67.793905 
L 1221.803125 66.456254 
L 1244.300781 364.752381 
L 1266.798437 364.752381 
L 1289.296094 364.752381 
L 1311.79375 364.752381 
L 1334.291406 364.752381 
L 1356.789062 364.752381 
L 1379.286719 364.752381 
L 1379.286719 364.752381 
L 1379.286719 364.752381 
L 1356.789062 364.752381 
L 1334.291406 364.752381 
L 1311.79375 364.752381 
L 1289.296094 364.752381 
L 1266.798437 364.752381 
L 1244.300781 364.752381 
L 1221.803125 -256.452713 
L 1199.305469 -253.522614 
L 1176.807812 -251.090766 
L 1154.310156 -249.087615 
L 1131.8125 -246.225767 
L 1109.314844 -305.254317 
L 1086.817187 -325.792613 
L 1064.319531 -333.61569 
L 1041.821875 -334.895559 
L 1019.324219 -333.468944 
L 996.826563 -334.314829 
L 974.328906 -333.347921 
L 951.83125 -331.720281 
L 929.333594 -329.114823 
L 906.835938 -323.984564 
L 884.338281 -319.442473 
L 861.840625 -314.41393 
L 839.342969 -308.187156 
L 816.845312 -300.022119 
L 794.347656 -293.370137 
L 771.85 -285.035095 
L 749.352344 -274.919564 
L 726.854687 -264.75712 
L 704.357031 -253.443988 
L 681.859375 -242.796031 
L 659.361719 -229.695967 
L 636.864062 -218.48453 
L 614.366406 -202.279338 
L 591.86875 -187.686428 
L 569.371094 -172.367406 
L 546.873438 -160.71365 
L 524.375781 -147.122961 
L 501.878125 -133.195457 
L 479.380469 -111.559605 
L 456.882812 -94.522919 
L 434.385156 -71.350128 
L 411.8875 -57.712195 
L 389.389844 -34.714169 
L 366.892187 -15.17583 
L 344.394531 15.266416 
L 321.896875 40.277357 
L 299.399219 57.835115 
L 276.901562 67.008069 
L 254.403906 92.554741 
L 231.90625 106.07942 
L 209.408594 143.853893 
L 186.910937 162.615177 
L 164.413281 180.351368 
L 141.915625 199.976919 
L 119.417969 237.390118 
L 96.920312 271.754676 
L 74.422656 281.139371 
L 51.925 291.262115 
z
" style="fill:#b22222;fill-opacity:0.25;stroke:#b22222;stroke-opacity:0.25;"/>
   </g>
   <g id="PolyCollection_3">
    <path clip-path="url(#p1c3f18a4e4)" d="M 51.925 348.05768 
L 51.925 317.294857 
L 74.422656 315.061562 
L 96.920312 313.142324 
L 119.417969 299.254019 
L 141.915625 286.2032 
L 164.413281 280.026743 
L 186.910937 275.315886 
L 209.408594 270.639924 
L 231.90625 256.96099 
L 254.403906 250.051733 
L 276.901562 241.327924 
L 299.399219 238.012876 
L 321.896875 233.476495 
L 344.394531 224.124571 
L 366.892187 212.783619 
L 389.389844 203.955124 
L 411.8875 196.941181 
L 434.385156 192.649067 
L 456.882812 185.390857 
L 479.380469 178.376914 
L 501.878125 170.106743 
L 524.375781 164.62819 
L 546.873438 159.35901 
L 569.371094 154.892419 
L 591.86875 148.681067 
L 614.366406 142.748876 
L 636.864062 136.712 
L 659.361719 132.733943 
L 681.859375 128.825676 
L 704.357031 124.568457 
L 726.854687 120.764876 
L 749.352344 117.345143 
L 771.85 114.518629 
L 794.347656 111.622324 
L 816.845312 109.412851 
L 839.342969 107.045623 
L 861.840625 104.544617 
L 884.338281 102.265766 
L 906.835938 100.359269 
L 929.333594 98.587893 
L 951.83125 97.731037 
L 974.328906 98.312324 
L 996.826563 99.053707 
L 1019.324219 100.732986 
L 1041.821875 100.816799 
L 1064.319531 102.588716 
L 1086.817187 108.091458 
L 1109.314844 122.543878 
L 1131.8125 152.647492 
L 1154.310156 151.716952 
L 1176.807812 151.193524 
L 1199.305469 150.146667 
L 1221.803125 149.506921 
L 1244.300781 328.914028 
L 1266.798437 328.914028 
L 1289.296094 328.914028 
L 1311.79375 328.914028 
L 1334.291406 328.914028 
L 1356.789062 328.914028 
L 1379.286719 328.914028 
L 1379.286719 334.65077 
L 1379.286719 334.65077 
L 1356.789062 334.65077 
L 1334.291406 334.65077 
L 1311.79375 334.65077 
L 1289.296094 334.65077 
L 1266.798437 334.65077 
L 1244.300781 334.65077 
L 1221.803125 341.812976 
L 1199.305469 341.809472 
L 1176.807812 341.637278 
L 1154.310156 341.68524 
L 1131.8125 341.880984 
L 1109.314844 314.251061 
L 1086.817187 299.964743 
L 1064.319531 292.869923 
L 1041.821875 289.831448 
L 1019.324219 288.833057 
L 996.826563 286.73765 
L 974.328906 285.086272 
L 951.83125 283.734234 
L 929.333594 283.452926 
L 906.835938 284.184408 
L 884.338281 284.998127 
L 861.840625 285.818826 
L 839.342969 286.605316 
L 816.845312 287.455439 
L 794.347656 288.480159 
L 771.85 289.569379 
L 749.352344 291.124482 
L 726.854687 292.895231 
L 704.357031 294.637781 
L 681.859375 296.667832 
L 659.361719 298.787044 
L 636.864062 300.536933 
L 614.366406 303.252224 
L 591.86875 305.955455 
L 569.371094 308.777061 
L 546.873438 310.716749 
L 524.375781 311.994419 
L 501.878125 314.097464 
L 479.380469 316.953148 
L 456.882812 321.166697 
L 434.385156 323.817595 
L 411.8875 325.05946 
L 389.389844 327.243604 
L 366.892187 332.402163 
L 344.394531 337.540342 
L 321.896875 341.736017 
L 299.399219 341.230403 
L 276.901562 341.720183 
L 254.403906 344.151859 
L 231.90625 348.769301 
L 209.408594 353.001274 
L 186.910937 350.260619 
L 164.413281 347.912113 
L 141.915625 347.930579 
L 119.417969 348.67579 
L 96.920312 352.137777 
L 74.422656 350.221683 
L 51.925 348.05768 
z
" style="fill:#00008b;fill-opacity:0.25;stroke:#00008b;stroke-opacity:0.25;"/>
   </g>
   <g id="PolyCollection_4">
    <path clip-path="url(#p1c3f18a4e4)" d="M 51.925 286.532034 
L 51.925 317.294857 
L 74.422656 315.061562 
L 96.920312 313.142324 
L 119.417969 299.254019 
L 141.915625 286.2032 
L 164.413281 280.026743 
L 186.910937 275.315886 
L 209.408594 270.639924 
L 231.90625 256.96099 
L 254.403906 250.051733 
L 276.901562 241.327924 
L 299.399219 238.012876 
L 321.896875 233.476495 
L 344.394531 224.124571 
L 366.892187 212.783619 
L 389.389844 203.955124 
L 411.8875 196.941181 
L 434.385156 192.649067 
L 456.882812 185.390857 
L 479.380469 178.376914 
L 501.878125 170.106743 
L 524.375781 164.62819 
L 546.873438 159.35901 
L 569.371094 154.892419 
L 591.86875 148.681067 
L 614.366406 142.748876 
L 636.864062 136.712 
L 659.361719 132.733943 
L 681.859375 128.825676 
L 704.357031 124.568457 
L 726.854687 120.764876 
L 749.352344 117.345143 
L 771.85 114.518629 
L 794.347656 111.622324 
L 816.845312 109.412851 
L 839.342969 107.045623 
L 861.840625 104.544617 
L 884.338281 102.265766 
L 906.835938 100.359269 
L 929.333594 98.587893 
L 951.83125 97.731037 
L 974.328906 98.312324 
L 996.826563 99.053707 
L 1019.324219 100.732986 
L 1041.821875 100.816799 
L 1064.319531 102.588716 
L 1086.817187 108.091458 
L 1109.314844 122.543878 
L 1131.8125 152.647492 
L 1154.310156 151.716952 
L 1176.807812 151.193524 
L 1199.305469 150.146667 
L 1221.803125 149.506921 
L 1244.300781 328.914028 
L 1266.798437 328.914028 
L 1289.296094 328.914028 
L 1311.79375 328.914028 
L 1334.291406 328.914028 
L 1356.789062 328.914028 
L 1379.286719 328.914028 
L 1379.286719 323.177287 
L 1379.286719 323.177287 
L 1356.789062 323.177287 
L 1334.291406 323.177287 
L 1311.79375 323.177287 
L 1289.296094 323.177287 
L 1266.798437 323.177287 
L 1244.300781 323.177287 
L 1221.803125 -42.799134 
L 1199.305469 -41.516138 
L 1176.807812 -39.25023 
L 1154.310156 -38.251336 
L 1131.8125 -36.586 
L 1109.314844 -69.163304 
L 1086.817187 -83.781826 
L 1064.319531 -87.69249 
L 1041.821875 -88.19785 
L 1019.324219 -87.367086 
L 996.826563 -88.630236 
L 974.328906 -88.461624 
L 951.83125 -88.27216 
L 929.333594 -86.277141 
L 906.835938 -83.465871 
L 884.338281 -80.466595 
L 861.840625 -76.729593 
L 839.342969 -72.514071 
L 816.845312 -68.629737 
L 794.347656 -65.235512 
L 771.85 -60.532122 
L 749.352344 -56.434196 
L 726.854687 -51.365479 
L 704.357031 -45.500867 
L 681.859375 -39.01648 
L 659.361719 -33.319159 
L 636.864062 -27.112933 
L 614.366406 -17.754472 
L 591.86875 -8.593322 
L 569.371094 1.007777 
L 546.873438 8.00127 
L 524.375781 17.261962 
L 501.878125 26.116022 
L 479.380469 39.800681 
L 456.882812 49.615017 
L 434.385156 61.480538 
L 411.8875 68.822902 
L 389.389844 80.666643 
L 366.892187 93.165075 
L 344.394531 110.708801 
L 321.896875 125.216973 
L 299.399219 134.795349 
L 276.901562 140.935665 
L 254.403906 155.951608 
L 231.90625 165.15268 
L 209.408594 188.278573 
L 186.910937 200.371153 
L 164.413281 212.141372 
L 141.915625 224.475821 
L 119.417969 249.832248 
L 96.920312 274.146871 
L 74.422656 279.901441 
L 51.925 286.532034 
z
" style="fill:#00008b;fill-opacity:0.25;stroke:#00008b;stroke-opacity:0.25;"/>
   </g>
   <g id="patch_3">
    <path clip-path="url(#p1c3f18a4e4)" d="M 96.920312 303.685714 
L 88.483691 277.514286 
L 96.909064 277.514286 
L 96.909064 85.590476 
L 96.931561 85.590476 
L 96.931561 277.514286 
L 105.356934 277.514286 
z
" style="stroke:#000000;stroke-linejoin:miter;"/>
   </g>
   <g id="matplotlib.axis_1">
    <g id="xtick_1">
     <g id="line2d_1">
      <defs>
       <path d="M 0 0 
L 0 3.5 
" id="m7b969ec35f" style="stroke:#000000;stroke-width:0.8;"/>
      </defs>
      <g>
       <use style="stroke:#000000;stroke-width:0.8;" x="96.920312" xlink:href="#m7b969ec35f" y="382.2"/>
      </g>
     </g>
     <g id="text_1">
      <!-- 0 -->
      <defs>
       <path d="M 31.78125 66.40625 
Q 24.171875 66.40625 20.328125 58.90625 
Q 16.5 51.421875 16.5 36.375 
Q 16.5 21.390625 20.328125 13.890625 
Q 24.171875 6.390625 31.78125 6.390625 
Q 39.453125 6.390625 43.28125 13.890625 
Q 47.125 21.390625 47.125 36.375 
Q 47.125 51.421875 43.28125 58.90625 
Q 39.453125 66.40625 31.78125 66.40625 
z
M 31.78125 74.21875 
Q 44.046875 74.21875 50.515625 64.515625 
Q 56.984375 54.828125 56.984375 36.375 
Q 56.984375 17.96875 50.515625 8.265625 
Q 44.046875 -1.421875 31.78125 -1.421875 
Q 19.53125 -1.421875 13.0625 8.265625 
Q 6.59375 17.96875 6.59375 36.375 
Q 6.59375 54.828125 13.0625 64.515625 
Q 19.53125 74.21875 31.78125 74.21875 
z
" id="DejaVuSans-48"/>
      </defs>
      <g transform="translate(93.102812 398.318125)scale(0.12 -0.12)">
       <use xlink:href="#DejaVuSans-48"/>
      </g>
     </g>
    </g>
    <g id="xtick_2">
     <g id="line2d_2">
      <g>
       <use style="stroke:#000000;stroke-width:0.8;" x="209.408594" xlink:href="#m7b969ec35f" y="382.2"/>
      </g>
     </g>
     <g id="text_2">
      <!-- 5 -->
      <defs>
       <path d="M 10.796875 72.90625 
L 49.515625 72.90625 
L 49.515625 64.59375 
L 19.828125 64.59375 
L 19.828125 46.734375 
Q 21.96875 47.46875 24.109375 47.828125 
Q 26.265625 48.1875 28.421875 48.1875 
Q 40.625 48.1875 47.75 41.5 
Q 54.890625 34.8125 54.890625 23.390625 
Q 54.890625 11.625 47.5625 5.09375 
Q 40.234375 -1.421875 26.90625 -1.421875 
Q 22.3125 -1.421875 17.546875 -0.640625 
Q 12.796875 0.140625 7.71875 1.703125 
L 7.71875 11.625 
Q 12.109375 9.234375 16.796875 8.0625 
Q 21.484375 6.890625 26.703125 6.890625 
Q 35.15625 6.890625 40.078125 11.328125 
Q 45.015625 15.765625 45.015625 23.390625 
Q 45.015625 31 40.078125 35.4375 
Q 35.15625 39.890625 26.703125 39.890625 
Q 22.75 39.890625 18.8125 39.015625 
Q 14.890625 38.140625 10.796875 36.28125 
z
" id="DejaVuSans-53"/>
      </defs>
      <g transform="translate(205.591094 398.318125)scale(0.12 -0.12)">
       <use xlink:href="#DejaVuSans-53"/>
      </g>
     </g>
    </g>
    <g id="xtick_3">
     <g id="line2d_3">
      <g>
       <use style="stroke:#000000;stroke-width:0.8;" x="321.896875" xlink:href="#m7b969ec35f" y="382.2"/>
      </g>
     </g>
     <g id="text_3">
      <!-- 10 -->
      <defs>
       <path d="M 12.40625 8.296875 
L 28.515625 8.296875 
L 28.515625 63.921875 
L 10.984375 60.40625 
L 10.984375 69.390625 
L 28.421875 72.90625 
L 38.28125 72.90625 
L 38.28125 8.296875 
L 54.390625 8.296875 
L 54.390625 0 
L 12.40625 0 
z
" id="DejaVuSans-49"/>
      </defs>
      <g transform="translate(314.261875 398.318125)scale(0.12 -0.12)">
       <use xlink:href="#DejaVuSans-49"/>
       <use x="63.623047" xlink:href="#DejaVuSans-48"/>
      </g>
     </g>
    </g>
    <g id="xtick_4">
     <g id="line2d_4">
      <g>
       <use style="stroke:#000000;stroke-width:0.8;" x="434.385156" xlink:href="#m7b969ec35f" y="382.2"/>
      </g>
     </g>
     <g id="text_4">
      <!-- 15 -->
      <g transform="translate(426.750156 398.318125)scale(0.12 -0.12)">
       <use xlink:href="#DejaVuSans-49"/>
       <use x="63.623047" xlink:href="#DejaVuSans-53"/>
      </g>
     </g>
    </g>
    <g id="xtick_5">
     <g id="line2d_5">
      <g>
       <use style="stroke:#000000;stroke-width:0.8;" x="546.873438" xlink:href="#m7b969ec35f" y="382.2"/>
      </g>
     </g>
     <g id="text_5">
      <!-- 20 -->
      <defs>
       <path d="M 19.1875 8.296875 
L 53.609375 8.296875 
L 53.609375 0 
L 7.328125 0 
L 7.328125 8.296875 
Q 12.9375 14.109375 22.625 23.890625 
Q 32.328125 33.6875 34.8125 36.53125 
Q 39.546875 41.84375 41.421875 45.53125 
Q 43.3125 49.21875 43.3125 52.78125 
Q 43.3125 58.59375 39.234375 62.25 
Q 35.15625 65.921875 28.609375 65.921875 
Q 23.96875 65.921875 18.8125 64.3125 
Q 13.671875 62.703125 7.8125 59.421875 
L 7.8125 69.390625 
Q 13.765625 71.78125 18.9375 73 
Q 24.125 74.21875 28.421875 74.21875 
Q 39.75 74.21875 46.484375 68.546875 
Q 53.21875 62.890625 53.21875 53.421875 
Q 53.21875 48.921875 51.53125 44.890625 
Q 49.859375 40.875 45.40625 35.40625 
Q 44.1875 33.984375 37.640625 27.21875 
Q 31.109375 20.453125 19.1875 8.296875 
z
" id="DejaVuSans-50"/>
      </defs>
      <g transform="translate(539.238438 398.318125)scale(0.12 -0.12)">
       <use xlink:href="#DejaVuSans-50"/>
       <use x="63.623047" xlink:href="#DejaVuSans-48"/>
      </g>
     </g>
    </g>
    <g id="xtick_6">
     <g id="line2d_6">
      <g>
       <use style="stroke:#000000;stroke-width:0.8;" x="659.361719" xlink:href="#m7b969ec35f" y="382.2"/>
      </g>
     </g>
     <g id="text_6">
      <!-- 25 -->
      <g transform="translate(651.726719 398.318125)scale(0.12 -0.12)">
       <use xlink:href="#DejaVuSans-50"/>
       <use x="63.623047" xlink:href="#DejaVuSans-53"/>
      </g>
     </g>
    </g>
    <g id="xtick_7">
     <g id="line2d_7">
      <g>
       <use style="stroke:#000000;stroke-width:0.8;" x="771.85" xlink:href="#m7b969ec35f" y="382.2"/>
      </g>
     </g>
     <g id="text_7">
      <!-- 30 -->
      <defs>
       <path d="M 40.578125 39.3125 
Q 47.65625 37.796875 51.625 33 
Q 55.609375 28.21875 55.609375 21.1875 
Q 55.609375 10.40625 48.1875 4.484375 
Q 40.765625 -1.421875 27.09375 -1.421875 
Q 22.515625 -1.421875 17.65625 -0.515625 
Q 12.796875 0.390625 7.625 2.203125 
L 7.625 11.71875 
Q 11.71875 9.328125 16.59375 8.109375 
Q 21.484375 6.890625 26.8125 6.890625 
Q 36.078125 6.890625 40.9375 10.546875 
Q 45.796875 14.203125 45.796875 21.1875 
Q 45.796875 27.640625 41.28125 31.265625 
Q 36.765625 34.90625 28.71875 34.90625 
L 20.21875 34.90625 
L 20.21875 43.015625 
L 29.109375 43.015625 
Q 36.375 43.015625 40.234375 45.921875 
Q 44.09375 48.828125 44.09375 54.296875 
Q 44.09375 59.90625 40.109375 62.90625 
Q 36.140625 65.921875 28.71875 65.921875 
Q 24.65625 65.921875 20.015625 65.03125 
Q 15.375 64.15625 9.8125 62.3125 
L 9.8125 71.09375 
Q 15.4375 72.65625 20.34375 73.4375 
Q 25.25 74.21875 29.59375 74.21875 
Q 40.828125 74.21875 47.359375 69.109375 
Q 53.90625 64.015625 53.90625 55.328125 
Q 53.90625 49.265625 50.4375 45.09375 
Q 46.96875 40.921875 40.578125 39.3125 
z
" id="DejaVuSans-51"/>
      </defs>
      <g transform="translate(764.215 398.318125)scale(0.12 -0.12)">
       <use xlink:href="#DejaVuSans-51"/>
       <use x="63.623047" xlink:href="#DejaVuSans-48"/>
      </g>
     </g>
    </g>
    <g id="text_8">
     <!-- days since first positive test -->
     <defs>
      <path d="M 45.40625 46.390625 
L 45.40625 75.984375 
L 54.390625 75.984375 
L 54.390625 0 
L 45.40625 0 
L 45.40625 8.203125 
Q 42.578125 3.328125 38.25 0.953125 
Q 33.9375 -1.421875 27.875 -1.421875 
Q 17.96875 -1.421875 11.734375 6.484375 
Q 5.515625 14.40625 5.515625 27.296875 
Q 5.515625 40.1875 11.734375 48.09375 
Q 17.96875 56 27.875 56 
Q 33.9375 56 38.25 53.625 
Q 42.578125 51.265625 45.40625 46.390625 
z
M 14.796875 27.296875 
Q 14.796875 17.390625 18.875 11.75 
Q 22.953125 6.109375 30.078125 6.109375 
Q 37.203125 6.109375 41.296875 11.75 
Q 45.40625 17.390625 45.40625 27.296875 
Q 45.40625 37.203125 41.296875 42.84375 
Q 37.203125 48.484375 30.078125 48.484375 
Q 22.953125 48.484375 18.875 42.84375 
Q 14.796875 37.203125 14.796875 27.296875 
z
" id="DejaVuSans-100"/>
      <path d="M 34.28125 27.484375 
Q 23.390625 27.484375 19.1875 25 
Q 14.984375 22.515625 14.984375 16.5 
Q 14.984375 11.71875 18.140625 8.90625 
Q 21.296875 6.109375 26.703125 6.109375 
Q 34.1875 6.109375 38.703125 11.40625 
Q 43.21875 16.703125 43.21875 25.484375 
L 43.21875 27.484375 
z
M 52.203125 31.203125 
L 52.203125 0 
L 43.21875 0 
L 43.21875 8.296875 
Q 40.140625 3.328125 35.546875 0.953125 
Q 30.953125 -1.421875 24.3125 -1.421875 
Q 15.921875 -1.421875 10.953125 3.296875 
Q 6 8.015625 6 15.921875 
Q 6 25.140625 12.171875 29.828125 
Q 18.359375 34.515625 30.609375 34.515625 
L 43.21875 34.515625 
L 43.21875 35.40625 
Q 43.21875 41.609375 39.140625 45 
Q 35.0625 48.390625 27.6875 48.390625 
Q 23 48.390625 18.546875 47.265625 
Q 14.109375 46.140625 10.015625 43.890625 
L 10.015625 52.203125 
Q 14.9375 54.109375 19.578125 55.046875 
Q 24.21875 56 28.609375 56 
Q 40.484375 56 46.34375 49.84375 
Q 52.203125 43.703125 52.203125 31.203125 
z
" id="DejaVuSans-97"/>
      <path d="M 32.171875 -5.078125 
Q 28.375 -14.84375 24.75 -17.8125 
Q 21.140625 -20.796875 15.09375 -20.796875 
L 7.90625 -20.796875 
L 7.90625 -13.28125 
L 13.1875 -13.28125 
Q 16.890625 -13.28125 18.9375 -11.515625 
Q 21 -9.765625 23.484375 -3.21875 
L 25.09375 0.875 
L 2.984375 54.6875 
L 12.5 54.6875 
L 29.59375 11.921875 
L 46.6875 54.6875 
L 56.203125 54.6875 
z
" id="DejaVuSans-121"/>
      <path d="M 44.28125 53.078125 
L 44.28125 44.578125 
Q 40.484375 46.53125 36.375 47.5 
Q 32.28125 48.484375 27.875 48.484375 
Q 21.1875 48.484375 17.84375 46.4375 
Q 14.5 44.390625 14.5 40.28125 
Q 14.5 37.15625 16.890625 35.375 
Q 19.28125 33.59375 26.515625 31.984375 
L 29.59375 31.296875 
Q 39.15625 29.25 43.1875 25.515625 
Q 47.21875 21.78125 47.21875 15.09375 
Q 47.21875 7.46875 41.1875 3.015625 
Q 35.15625 -1.421875 24.609375 -1.421875 
Q 20.21875 -1.421875 15.453125 -0.5625 
Q 10.6875 0.296875 5.421875 2 
L 5.421875 11.28125 
Q 10.40625 8.6875 15.234375 7.390625 
Q 20.0625 6.109375 24.8125 6.109375 
Q 31.15625 6.109375 34.5625 8.28125 
Q 37.984375 10.453125 37.984375 14.40625 
Q 37.984375 18.0625 35.515625 20.015625 
Q 33.0625 21.96875 24.703125 23.78125 
L 21.578125 24.515625 
Q 13.234375 26.265625 9.515625 29.90625 
Q 5.8125 33.546875 5.8125 39.890625 
Q 5.8125 47.609375 11.28125 51.796875 
Q 16.75 56 26.8125 56 
Q 31.78125 56 36.171875 55.265625 
Q 40.578125 54.546875 44.28125 53.078125 
z
" id="DejaVuSans-115"/>
      <path id="DejaVuSans-32"/>
      <path d="M 9.421875 54.6875 
L 18.40625 54.6875 
L 18.40625 0 
L 9.421875 0 
z
M 9.421875 75.984375 
L 18.40625 75.984375 
L 18.40625 64.59375 
L 9.421875 64.59375 
z
" id="DejaVuSans-105"/>
      <path d="M 54.890625 33.015625 
L 54.890625 0 
L 45.90625 0 
L 45.90625 32.71875 
Q 45.90625 40.484375 42.875 44.328125 
Q 39.84375 48.1875 33.796875 48.1875 
Q 26.515625 48.1875 22.3125 43.546875 
Q 18.109375 38.921875 18.109375 30.90625 
L 18.109375 0 
L 9.078125 0 
L 9.078125 54.6875 
L 18.109375 54.6875 
L 18.109375 46.1875 
Q 21.34375 51.125 25.703125 53.5625 
Q 30.078125 56 35.796875 56 
Q 45.21875 56 50.046875 50.171875 
Q 54.890625 44.34375 54.890625 33.015625 
z
" id="DejaVuSans-110"/>
      <path d="M 48.78125 52.59375 
L 48.78125 44.1875 
Q 44.96875 46.296875 41.140625 47.34375 
Q 37.3125 48.390625 33.40625 48.390625 
Q 24.65625 48.390625 19.8125 42.84375 
Q 14.984375 37.3125 14.984375 27.296875 
Q 14.984375 17.28125 19.8125 11.734375 
Q 24.65625 6.203125 33.40625 6.203125 
Q 37.3125 6.203125 41.140625 7.25 
Q 44.96875 8.296875 48.78125 10.40625 
L 48.78125 2.09375 
Q 45.015625 0.34375 40.984375 -0.53125 
Q 36.96875 -1.421875 32.421875 -1.421875 
Q 20.0625 -1.421875 12.78125 6.34375 
Q 5.515625 14.109375 5.515625 27.296875 
Q 5.515625 40.671875 12.859375 48.328125 
Q 20.21875 56 33.015625 56 
Q 37.15625 56 41.109375 55.140625 
Q 45.0625 54.296875 48.78125 52.59375 
z
" id="DejaVuSans-99"/>
      <path d="M 56.203125 29.59375 
L 56.203125 25.203125 
L 14.890625 25.203125 
Q 15.484375 15.921875 20.484375 11.0625 
Q 25.484375 6.203125 34.421875 6.203125 
Q 39.59375 6.203125 44.453125 7.46875 
Q 49.3125 8.734375 54.109375 11.28125 
L 54.109375 2.78125 
Q 49.265625 0.734375 44.1875 -0.34375 
Q 39.109375 -1.421875 33.890625 -1.421875 
Q 20.796875 -1.421875 13.15625 6.1875 
Q 5.515625 13.8125 5.515625 26.8125 
Q 5.515625 40.234375 12.765625 48.109375 
Q 20.015625 56 32.328125 56 
Q 43.359375 56 49.78125 48.890625 
Q 56.203125 41.796875 56.203125 29.59375 
z
M 47.21875 32.234375 
Q 47.125 39.59375 43.09375 43.984375 
Q 39.0625 48.390625 32.421875 48.390625 
Q 24.90625 48.390625 20.390625 44.140625 
Q 15.875 39.890625 15.1875 32.171875 
z
" id="DejaVuSans-101"/>
      <path d="M 37.109375 75.984375 
L 37.109375 68.5 
L 28.515625 68.5 
Q 23.6875 68.5 21.796875 66.546875 
Q 19.921875 64.59375 19.921875 59.515625 
L 19.921875 54.6875 
L 34.71875 54.6875 
L 34.71875 47.703125 
L 19.921875 47.703125 
L 19.921875 0 
L 10.890625 0 
L 10.890625 47.703125 
L 2.296875 47.703125 
L 2.296875 54.6875 
L 10.890625 54.6875 
L 10.890625 58.5 
Q 10.890625 67.625 15.140625 71.796875 
Q 19.390625 75.984375 28.609375 75.984375 
z
" id="DejaVuSans-102"/>
      <path d="M 41.109375 46.296875 
Q 39.59375 47.171875 37.8125 47.578125 
Q 36.03125 48 33.890625 48 
Q 26.265625 48 22.1875 43.046875 
Q 18.109375 38.09375 18.109375 28.8125 
L 18.109375 0 
L 9.078125 0 
L 9.078125 54.6875 
L 18.109375 54.6875 
L 18.109375 46.1875 
Q 20.953125 51.171875 25.484375 53.578125 
Q 30.03125 56 36.53125 56 
Q 37.453125 56 38.578125 55.875 
Q 39.703125 55.765625 41.0625 55.515625 
z
" id="DejaVuSans-114"/>
      <path d="M 18.3125 70.21875 
L 18.3125 54.6875 
L 36.8125 54.6875 
L 36.8125 47.703125 
L 18.3125 47.703125 
L 18.3125 18.015625 
Q 18.3125 11.328125 20.140625 9.421875 
Q 21.96875 7.515625 27.59375 7.515625 
L 36.8125 7.515625 
L 36.8125 0 
L 27.59375 0 
Q 17.1875 0 13.234375 3.875 
Q 9.28125 7.765625 9.28125 18.015625 
L 9.28125 47.703125 
L 2.6875 47.703125 
L 2.6875 54.6875 
L 9.28125 54.6875 
L 9.28125 70.21875 
z
" id="DejaVuSans-116"/>
      <path d="M 18.109375 8.203125 
L 18.109375 -20.796875 
L 9.078125 -20.796875 
L 9.078125 54.6875 
L 18.109375 54.6875 
L 18.109375 46.390625 
Q 20.953125 51.265625 25.265625 53.625 
Q 29.59375 56 35.59375 56 
Q 45.5625 56 51.78125 48.09375 
Q 58.015625 40.1875 58.015625 27.296875 
Q 58.015625 14.40625 51.78125 6.484375 
Q 45.5625 -1.421875 35.59375 -1.421875 
Q 29.59375 -1.421875 25.265625 0.953125 
Q 20.953125 3.328125 18.109375 8.203125 
z
M 48.6875 27.296875 
Q 48.6875 37.203125 44.609375 42.84375 
Q 40.53125 48.484375 33.40625 48.484375 
Q 26.265625 48.484375 22.1875 42.84375 
Q 18.109375 37.203125 18.109375 27.296875 
Q 18.109375 17.390625 22.1875 11.75 
Q 26.265625 6.109375 33.40625 6.109375 
Q 40.53125 6.109375 44.609375 11.75 
Q 48.6875 17.390625 48.6875 27.296875 
z
" id="DejaVuSans-112"/>
      <path d="M 30.609375 48.390625 
Q 23.390625 48.390625 19.1875 42.75 
Q 14.984375 37.109375 14.984375 27.296875 
Q 14.984375 17.484375 19.15625 11.84375 
Q 23.34375 6.203125 30.609375 6.203125 
Q 37.796875 6.203125 41.984375 11.859375 
Q 46.1875 17.53125 46.1875 27.296875 
Q 46.1875 37.015625 41.984375 42.703125 
Q 37.796875 48.390625 30.609375 48.390625 
z
M 30.609375 56 
Q 42.328125 56 49.015625 48.375 
Q 55.71875 40.765625 55.71875 27.296875 
Q 55.71875 13.875 49.015625 6.21875 
Q 42.328125 -1.421875 30.609375 -1.421875 
Q 18.84375 -1.421875 12.171875 6.21875 
Q 5.515625 13.875 5.515625 27.296875 
Q 5.515625 40.765625 12.171875 48.375 
Q 18.84375 56 30.609375 56 
z
" id="DejaVuSans-111"/>
      <path d="M 2.984375 54.6875 
L 12.5 54.6875 
L 29.59375 8.796875 
L 46.6875 54.6875 
L 56.203125 54.6875 
L 35.6875 0 
L 23.484375 0 
z
" id="DejaVuSans-118"/>
     </defs>
     <g transform="translate(299.67875 416.97125)scale(0.16 -0.16)">
      <use xlink:href="#DejaVuSans-100"/>
      <use x="63.476562" xlink:href="#DejaVuSans-97"/>
      <use x="124.755859" xlink:href="#DejaVuSans-121"/>
      <use x="183.935547" xlink:href="#DejaVuSans-115"/>
      <use x="236.035156" xlink:href="#DejaVuSans-32"/>
      <use x="267.822266" xlink:href="#DejaVuSans-115"/>
      <use x="319.921875" xlink:href="#DejaVuSans-105"/>
      <use x="347.705078" xlink:href="#DejaVuSans-110"/>
      <use x="411.083984" xlink:href="#DejaVuSans-99"/>
      <use x="466.064453" xlink:href="#DejaVuSans-101"/>
      <use x="527.587891" xlink:href="#DejaVuSans-32"/>
      <use x="559.375" xlink:href="#DejaVuSans-102"/>
      <use x="594.580078" xlink:href="#DejaVuSans-105"/>
      <use x="622.363281" xlink:href="#DejaVuSans-114"/>
      <use x="663.476562" xlink:href="#DejaVuSans-115"/>
      <use x="715.576172" xlink:href="#DejaVuSans-116"/>
      <use x="754.785156" xlink:href="#DejaVuSans-32"/>
      <use x="786.572266" xlink:href="#DejaVuSans-112"/>
      <use x="850.048828" xlink:href="#DejaVuSans-111"/>
      <use x="911.230469" xlink:href="#DejaVuSans-115"/>
      <use x="963.330078" xlink:href="#DejaVuSans-105"/>
      <use x="991.113281" xlink:href="#DejaVuSans-116"/>
      <use x="1030.322266" xlink:href="#DejaVuSans-105"/>
      <use x="1058.105469" xlink:href="#DejaVuSans-118"/>
      <use x="1117.285156" xlink:href="#DejaVuSans-101"/>
      <use x="1178.808594" xlink:href="#DejaVuSans-32"/>
      <use x="1210.595703" xlink:href="#DejaVuSans-116"/>
      <use x="1249.804688" xlink:href="#DejaVuSans-101"/>
      <use x="1311.328125" xlink:href="#DejaVuSans-115"/>
      <use x="1363.427734" xlink:href="#DejaVuSans-116"/>
     </g>
    </g>
   </g>
   <g id="matplotlib.axis_2">
    <g id="ytick_1">
     <g id="line2d_8">
      <defs>
       <path d="M 0 0 
L -3.5 0 
" id="m0bf7c117a1" style="stroke:#000000;stroke-width:0.8;"/>
      </defs>
      <g>
       <use style="stroke:#000000;stroke-width:0.8;" x="51.925" xlink:href="#m0bf7c117a1" y="364.752381"/>
      </g>
     </g>
     <g id="text_9">
      <!-- 0 -->
      <g transform="translate(37.29 369.311443)scale(0.12 -0.12)">
       <use xlink:href="#DejaVuSans-48"/>
      </g>
     </g>
    </g>
    <g id="ytick_2">
     <g id="line2d_9">
      <g>
       <use style="stroke:#000000;stroke-width:0.8;" x="51.925" xlink:href="#m0bf7c117a1" y="294.961905"/>
      </g>
     </g>
     <g id="text_10">
      <!-- 2 -->
      <g transform="translate(37.29 299.520967)scale(0.12 -0.12)">
       <use xlink:href="#DejaVuSans-50"/>
      </g>
     </g>
    </g>
    <g id="ytick_3">
     <g id="line2d_10">
      <g>
       <use style="stroke:#000000;stroke-width:0.8;" x="51.925" xlink:href="#m0bf7c117a1" y="225.171429"/>
      </g>
     </g>
     <g id="text_11">
      <!-- 4 -->
      <defs>
       <path d="M 37.796875 64.3125 
L 12.890625 25.390625 
L 37.796875 25.390625 
z
M 35.203125 72.90625 
L 47.609375 72.90625 
L 47.609375 25.390625 
L 58.015625 25.390625 
L 58.015625 17.1875 
L 47.609375 17.1875 
L 47.609375 0 
L 37.796875 0 
L 37.796875 17.1875 
L 4.890625 17.1875 
L 4.890625 26.703125 
z
" id="DejaVuSans-52"/>
      </defs>
      <g transform="translate(37.29 229.730491)scale(0.12 -0.12)">
       <use xlink:href="#DejaVuSans-52"/>
      </g>
     </g>
    </g>
    <g id="ytick_4">
     <g id="line2d_11">
      <g>
       <use style="stroke:#000000;stroke-width:0.8;" x="51.925" xlink:href="#m0bf7c117a1" y="155.380952"/>
      </g>
     </g>
     <g id="text_12">
      <!-- 6 -->
      <defs>
       <path d="M 33.015625 40.375 
Q 26.375 40.375 22.484375 35.828125 
Q 18.609375 31.296875 18.609375 23.390625 
Q 18.609375 15.53125 22.484375 10.953125 
Q 26.375 6.390625 33.015625 6.390625 
Q 39.65625 6.390625 43.53125 10.953125 
Q 47.40625 15.53125 47.40625 23.390625 
Q 47.40625 31.296875 43.53125 35.828125 
Q 39.65625 40.375 33.015625 40.375 
z
M 52.59375 71.296875 
L 52.59375 62.3125 
Q 48.875 64.0625 45.09375 64.984375 
Q 41.3125 65.921875 37.59375 65.921875 
Q 27.828125 65.921875 22.671875 59.328125 
Q 17.53125 52.734375 16.796875 39.40625 
Q 19.671875 43.65625 24.015625 45.921875 
Q 28.375 48.1875 33.59375 48.1875 
Q 44.578125 48.1875 50.953125 41.515625 
Q 57.328125 34.859375 57.328125 23.390625 
Q 57.328125 12.15625 50.6875 5.359375 
Q 44.046875 -1.421875 33.015625 -1.421875 
Q 20.359375 -1.421875 13.671875 8.265625 
Q 6.984375 17.96875 6.984375 36.375 
Q 6.984375 53.65625 15.1875 63.9375 
Q 23.390625 74.21875 37.203125 74.21875 
Q 40.921875 74.21875 44.703125 73.484375 
Q 48.484375 72.75 52.59375 71.296875 
z
" id="DejaVuSans-54"/>
      </defs>
      <g transform="translate(37.29 159.940015)scale(0.12 -0.12)">
       <use xlink:href="#DejaVuSans-54"/>
      </g>
     </g>
    </g>
    <g id="ytick_5">
     <g id="line2d_12">
      <g>
       <use style="stroke:#000000;stroke-width:0.8;" x="51.925" xlink:href="#m0bf7c117a1" y="85.590476"/>
      </g>
     </g>
     <g id="text_13">
      <!-- 8 -->
      <defs>
       <path d="M 31.78125 34.625 
Q 24.75 34.625 20.71875 30.859375 
Q 16.703125 27.09375 16.703125 20.515625 
Q 16.703125 13.921875 20.71875 10.15625 
Q 24.75 6.390625 31.78125 6.390625 
Q 38.8125 6.390625 42.859375 10.171875 
Q 46.921875 13.96875 46.921875 20.515625 
Q 46.921875 27.09375 42.890625 30.859375 
Q 38.875 34.625 31.78125 34.625 
z
M 21.921875 38.8125 
Q 15.578125 40.375 12.03125 44.71875 
Q 8.5 49.078125 8.5 55.328125 
Q 8.5 64.0625 14.71875 69.140625 
Q 20.953125 74.21875 31.78125 74.21875 
Q 42.671875 74.21875 48.875 69.140625 
Q 55.078125 64.0625 55.078125 55.328125 
Q 55.078125 49.078125 51.53125 44.71875 
Q 48 40.375 41.703125 38.8125 
Q 48.828125 37.15625 52.796875 32.3125 
Q 56.78125 27.484375 56.78125 20.515625 
Q 56.78125 9.90625 50.3125 4.234375 
Q 43.84375 -1.421875 31.78125 -1.421875 
Q 19.734375 -1.421875 13.25 4.234375 
Q 6.78125 9.90625 6.78125 20.515625 
Q 6.78125 27.484375 10.78125 32.3125 
Q 14.796875 37.15625 21.921875 38.8125 
z
M 18.3125 54.390625 
Q 18.3125 48.734375 21.84375 45.5625 
Q 25.390625 42.390625 31.78125 42.390625 
Q 38.140625 42.390625 41.71875 45.5625 
Q 45.3125 48.734375 45.3125 54.390625 
Q 45.3125 60.0625 41.71875 63.234375 
Q 38.140625 66.40625 31.78125 66.40625 
Q 25.390625 66.40625 21.84375 63.234375 
Q 18.3125 60.0625 18.3125 54.390625 
z
" id="DejaVuSans-56"/>
      </defs>
      <g transform="translate(37.29 90.149539)scale(0.12 -0.12)">
       <use xlink:href="#DejaVuSans-56"/>
      </g>
     </g>
    </g>
    <g id="ytick_6">
     <g id="line2d_13">
      <g>
       <use style="stroke:#000000;stroke-width:0.8;" x="51.925" xlink:href="#m0bf7c117a1" y="15.8"/>
      </g>
     </g>
     <g id="text_14">
      <!-- 10 -->
      <g transform="translate(29.655 20.359063)scale(0.12 -0.12)">
       <use xlink:href="#DejaVuSans-49"/>
       <use x="63.623047" xlink:href="#DejaVuSans-48"/>
      </g>
     </g>
    </g>
    <g id="text_15">
     <!-- infected persons -->
     <g transform="translate(22.3275 265.7)rotate(-90)scale(0.16 -0.16)">
      <use xlink:href="#DejaVuSans-105"/>
      <use x="27.783203" xlink:href="#DejaVuSans-110"/>
      <use x="91.162109" xlink:href="#DejaVuSans-102"/>
      <use x="126.367188" xlink:href="#DejaVuSans-101"/>
      <use x="187.890625" xlink:href="#DejaVuSans-99"/>
      <use x="242.871094" xlink:href="#DejaVuSans-116"/>
      <use x="282.080078" xlink:href="#DejaVuSans-101"/>
      <use x="343.603516" xlink:href="#DejaVuSans-100"/>
      <use x="407.080078" xlink:href="#DejaVuSans-32"/>
      <use x="438.867188" xlink:href="#DejaVuSans-112"/>
      <use x="502.34375" xlink:href="#DejaVuSans-101"/>
      <use x="563.867188" xlink:href="#DejaVuSans-114"/>
      <use x="604.980469" xlink:href="#DejaVuSans-115"/>
      <use x="657.080078" xlink:href="#DejaVuSans-111"/>
      <use x="718.261719" xlink:href="#DejaVuSans-110"/>
      <use x="781.640625" xlink:href="#DejaVuSans-115"/>
     </g>
    </g>
   </g>
   <g id="line2d_14">
    <path clip-path="url(#p1c3f18a4e4)" d="M 51.925 336.661714 
L 74.422656 332.893029 
L 96.920312 329.4384 
L 119.417969 308.815314 
L 141.915625 287.808381 
L 164.413281 280.061638 
L 186.910937 273.222171 
L 209.408594 266.103543 
L 231.90625 245.585143 
L 254.403906 236.163429 
L 276.901562 222.903238 
L 299.399219 218.646019 
L 321.896875 210.934171 
L 344.394531 195.336 
L 366.892187 176.771733 
L 389.389844 164.314133 
L 411.8875 151.542476 
L 434.385156 143.830629 
L 456.882812 130.221486 
L 479.380469 118.775848 
L 501.878125 104.992229 
L 524.375781 96.303314 
L 546.873438 88.033143 
L 569.371094 80.600457 
L 591.86875 70.655314 
L 614.366406 61.2336 
L 636.864062 51.218667 
L 659.361719 44.274514 
L 681.859375 36.3184 
L 704.357031 29.688305 
L 726.854687 22.639467 
L 749.352344 16.183848 
L 771.85 9.902705 
L 794.347656 4.528838 
L 816.845312 0.535516 
L 824.217929 -1 
" style="fill:none;stroke:#b22222;stroke-linecap:square;stroke-width:1.5;"/>
   </g>
   <g id="line2d_15">
    <path clip-path="url(#p1c3f18a4e4)" d="M 51.925 317.294857 
L 74.422656 315.061562 
L 96.920312 313.142324 
L 119.417969 299.254019 
L 141.915625 286.2032 
L 164.413281 280.026743 
L 186.910937 275.315886 
L 209.408594 270.639924 
L 231.90625 256.96099 
L 254.403906 250.051733 
L 276.901562 241.327924 
L 299.399219 238.012876 
L 321.896875 233.476495 
L 344.394531 224.124571 
L 366.892187 212.783619 
L 389.389844 203.955124 
L 411.8875 196.941181 
L 434.385156 192.649067 
L 456.882812 185.390857 
L 479.380469 178.376914 
L 501.878125 170.106743 
L 524.375781 164.62819 
L 546.873438 159.35901 
L 569.371094 154.892419 
L 591.86875 148.681067 
L 614.366406 142.748876 
L 636.864062 136.712 
L 659.361719 132.733943 
L 681.859375 128.825676 
L 704.357031 124.568457 
L 726.854687 120.764876 
L 749.352344 117.345143 
L 771.85 114.518629 
L 794.347656 111.622324 
L 816.845312 109.412851 
L 839.342969 107.045623 
L 861.840625 104.544617 
L 884.338281 102.265766 
L 906.835938 100.359269 
L 929.333594 98.587893 
L 937 98.295907 
" style="fill:none;stroke:#00008b;stroke-linecap:square;stroke-width:1.5;"/>
   </g>
   <g id="line2d_16">
    <defs>
     <path d="M 0 3 
C 0.795609 3 1.55874 2.683901 2.12132 2.12132 
C 2.683901 1.55874 3 0.795609 3 0 
C 3 -0.795609 2.683901 -1.55874 2.12132 -2.12132 
C 1.55874 -2.683901 0.795609 -3 0 -3 
C -0.795609 -3 -1.55874 -2.683901 -2.12132 -2.12132 
C -2.683901 -1.55874 -3 -0.795609 -3 0 
C -3 0.795609 -2.683901 1.55874 -2.12132 2.12132 
C -1.55874 2.683901 -0.795609 3 0 3 
z
" id="mc749907a06" style="stroke:#00008b;stroke-opacity:0.375;"/>
    </defs>
    <g clip-path="url(#p1c3f18a4e4)">
     <use style="fill:#00008b;fill-opacity:0.375;stroke:#00008b;stroke-opacity:0.375;" x="96.920312" xlink:href="#mc749907a06" y="329.857143"/>
     <use style="fill:#00008b;fill-opacity:0.375;stroke:#00008b;stroke-opacity:0.375;" x="119.417969" xlink:href="#mc749907a06" y="329.857143"/>
     <use style="fill:#00008b;fill-opacity:0.375;stroke:#00008b;stroke-opacity:0.375;" x="141.915625" xlink:href="#mc749907a06" y="329.857143"/>
     <use style="fill:#00008b;fill-opacity:0.375;stroke:#00008b;stroke-opacity:0.375;" x="164.413281" xlink:href="#mc749907a06" y="329.857143"/>
     <use style="fill:#00008b;fill-opacity:0.375;stroke:#00008b;stroke-opacity:0.375;" x="186.910937" xlink:href="#mc749907a06" y="294.961905"/>
     <use style="fill:#00008b;fill-opacity:0.375;stroke:#00008b;stroke-opacity:0.375;" x="209.408594" xlink:href="#mc749907a06" y="294.961905"/>
     <use style="fill:#00008b;fill-opacity:0.375;stroke:#00008b;stroke-opacity:0.375;" x="231.90625" xlink:href="#mc749907a06" y="294.961905"/>
     <use style="fill:#00008b;fill-opacity:0.375;stroke:#00008b;stroke-opacity:0.375;" x="254.403906" xlink:href="#mc749907a06" y="294.961905"/>
     <use style="fill:#00008b;fill-opacity:0.375;stroke:#00008b;stroke-opacity:0.375;" x="276.901562" xlink:href="#mc749907a06" y="294.961905"/>
     <use style="fill:#00008b;fill-opacity:0.375;stroke:#00008b;stroke-opacity:0.375;" x="299.399219" xlink:href="#mc749907a06" y="294.961905"/>
     <use style="fill:#00008b;fill-opacity:0.375;stroke:#00008b;stroke-opacity:0.375;" x="321.896875" xlink:href="#mc749907a06" y="294.961905"/>
     <use style="fill:#00008b;fill-opacity:0.375;stroke:#00008b;stroke-opacity:0.375;" x="344.394531" xlink:href="#mc749907a06" y="294.961905"/>
     <use style="fill:#00008b;fill-opacity:0.375;stroke:#00008b;stroke-opacity:0.375;" x="366.892187" xlink:href="#mc749907a06" y="294.961905"/>
     <use style="fill:#00008b;fill-opacity:0.375;stroke:#00008b;stroke-opacity:0.375;" x="389.389844" xlink:href="#mc749907a06" y="294.961905"/>
     <use style="fill:#00008b;fill-opacity:0.375;stroke:#00008b;stroke-opacity:0.375;" x="411.8875" xlink:href="#mc749907a06" y="294.961905"/>
     <use style="fill:#00008b;fill-opacity:0.375;stroke:#00008b;stroke-opacity:0.375;" x="434.385156" xlink:href="#mc749907a06" y="294.961905"/>
     <use style="fill:#00008b;fill-opacity:0.375;stroke:#00008b;stroke-opacity:0.375;" x="456.882812" xlink:href="#mc749907a06" y="294.961905"/>
     <use style="fill:#00008b;fill-opacity:0.375;stroke:#00008b;stroke-opacity:0.375;" x="479.380469" xlink:href="#mc749907a06" y="294.961905"/>
     <use style="fill:#00008b;fill-opacity:0.375;stroke:#00008b;stroke-opacity:0.375;" x="501.878125" xlink:href="#mc749907a06" y="294.961905"/>
     <use style="fill:#00008b;fill-opacity:0.375;stroke:#00008b;stroke-opacity:0.375;" x="524.375781" xlink:href="#mc749907a06" y="294.961905"/>
     <use style="fill:#00008b;fill-opacity:0.375;stroke:#00008b;stroke-opacity:0.375;" x="546.873438" xlink:href="#mc749907a06" y="294.961905"/>
     <use style="fill:#00008b;fill-opacity:0.375;stroke:#00008b;stroke-opacity:0.375;" x="569.371094" xlink:href="#mc749907a06" y="294.961905"/>
     <use style="fill:#00008b;fill-opacity:0.375;stroke:#00008b;stroke-opacity:0.375;" x="591.86875" xlink:href="#mc749907a06" y="294.961905"/>
     <use style="fill:#00008b;fill-opacity:0.375;stroke:#00008b;stroke-opacity:0.375;" x="614.366406" xlink:href="#mc749907a06" y="294.961905"/>
     <use style="fill:#00008b;fill-opacity:0.375;stroke:#00008b;stroke-opacity:0.375;" x="636.864062" xlink:href="#mc749907a06" y="294.961905"/>
     <use style="fill:#00008b;fill-opacity:0.375;stroke:#00008b;stroke-opacity:0.375;" x="659.361719" xlink:href="#mc749907a06" y="294.961905"/>
     <use style="fill:#00008b;fill-opacity:0.375;stroke:#00008b;stroke-opacity:0.375;" x="681.859375" xlink:href="#mc749907a06" y="294.961905"/>
     <use style="fill:#00008b;fill-opacity:0.375;stroke:#00008b;stroke-opacity:0.375;" x="704.357031" xlink:href="#mc749907a06" y="294.961905"/>
    </g>
   </g>
   <g id="line2d_17">
    <defs>
     <path d="M 0 3 
C 0.795609 3 1.55874 2.683901 2.12132 2.12132 
C 2.683901 1.55874 3 0.795609 3 0 
C 3 -0.795609 2.683901 -1.55874 2.12132 -2.12132 
C 1.55874 -2.683901 0.795609 -3 0 -3 
C -0.795609 -3 -1.55874 -2.683901 -2.12132 -2.12132 
C -2.683901 -1.55874 -3 -0.795609 -3 0 
C -3 0.795609 -2.683901 1.55874 -2.12132 2.12132 
C -1.55874 2.683901 -0.795609 3 0 3 
z
" id="m0b91d538d0" style="stroke:#b22222;stroke-opacity:0.375;"/>
    </defs>
    <g clip-path="url(#p1c3f18a4e4)">
     <use style="fill:#b22222;fill-opacity:0.375;stroke:#b22222;stroke-opacity:0.375;" x="96.920312" xlink:href="#m0b91d538d0" y="364.752381"/>
     <use style="fill:#b22222;fill-opacity:0.375;stroke:#b22222;stroke-opacity:0.375;" x="119.417969" xlink:href="#m0b91d538d0" y="329.857143"/>
     <use style="fill:#b22222;fill-opacity:0.375;stroke:#b22222;stroke-opacity:0.375;" x="141.915625" xlink:href="#m0b91d538d0" y="329.857143"/>
     <use style="fill:#b22222;fill-opacity:0.375;stroke:#b22222;stroke-opacity:0.375;" x="164.413281" xlink:href="#m0b91d538d0" y="329.857143"/>
     <use style="fill:#b22222;fill-opacity:0.375;stroke:#b22222;stroke-opacity:0.375;" x="186.910937" xlink:href="#m0b91d538d0" y="225.171429"/>
     <use style="fill:#b22222;fill-opacity:0.375;stroke:#b22222;stroke-opacity:0.375;" x="209.408594" xlink:href="#m0b91d538d0" y="225.171429"/>
     <use style="fill:#b22222;fill-opacity:0.375;stroke:#b22222;stroke-opacity:0.375;" x="231.90625" xlink:href="#m0b91d538d0" y="190.27619"/>
     <use style="fill:#b22222;fill-opacity:0.375;stroke:#b22222;stroke-opacity:0.375;" x="254.403906" xlink:href="#m0b91d538d0" y="120.485714"/>
     <use style="fill:#b22222;fill-opacity:0.375;stroke:#b22222;stroke-opacity:0.375;" x="276.901562" xlink:href="#m0b91d538d0" y="120.485714"/>
     <use style="fill:#b22222;fill-opacity:0.375;stroke:#b22222;stroke-opacity:0.375;" x="299.399219" xlink:href="#m0b91d538d0" y="120.485714"/>
     <use style="fill:#b22222;fill-opacity:0.375;stroke:#b22222;stroke-opacity:0.375;" x="321.896875" xlink:href="#m0b91d538d0" y="120.485714"/>
     <use style="fill:#b22222;fill-opacity:0.375;stroke:#b22222;stroke-opacity:0.375;" x="344.394531" xlink:href="#m0b91d538d0" y="120.485714"/>
     <use style="fill:#b22222;fill-opacity:0.375;stroke:#b22222;stroke-opacity:0.375;" x="366.892187" xlink:href="#m0b91d538d0" y="120.485714"/>
     <use style="fill:#b22222;fill-opacity:0.375;stroke:#b22222;stroke-opacity:0.375;" x="389.389844" xlink:href="#m0b91d538d0" y="120.485714"/>
     <use style="fill:#b22222;fill-opacity:0.375;stroke:#b22222;stroke-opacity:0.375;" x="411.8875" xlink:href="#m0b91d538d0" y="120.485714"/>
     <use style="fill:#b22222;fill-opacity:0.375;stroke:#b22222;stroke-opacity:0.375;" x="434.385156" xlink:href="#m0b91d538d0" y="120.485714"/>
     <use style="fill:#b22222;fill-opacity:0.375;stroke:#b22222;stroke-opacity:0.375;" x="456.882812" xlink:href="#m0b91d538d0" y="120.485714"/>
     <use style="fill:#b22222;fill-opacity:0.375;stroke:#b22222;stroke-opacity:0.375;" x="479.380469" xlink:href="#m0b91d538d0" y="120.485714"/>
     <use style="fill:#b22222;fill-opacity:0.375;stroke:#b22222;stroke-opacity:0.375;" x="501.878125" xlink:href="#m0b91d538d0" y="120.485714"/>
     <use style="fill:#b22222;fill-opacity:0.375;stroke:#b22222;stroke-opacity:0.375;" x="524.375781" xlink:href="#m0b91d538d0" y="120.485714"/>
     <use style="fill:#b22222;fill-opacity:0.375;stroke:#b22222;stroke-opacity:0.375;" x="546.873438" xlink:href="#m0b91d538d0" y="120.485714"/>
     <use style="fill:#b22222;fill-opacity:0.375;stroke:#b22222;stroke-opacity:0.375;" x="569.371094" xlink:href="#m0b91d538d0" y="120.485714"/>
     <use style="fill:#b22222;fill-opacity:0.375;stroke:#b22222;stroke-opacity:0.375;" x="591.86875" xlink:href="#m0b91d538d0" y="120.485714"/>
     <use style="fill:#b22222;fill-opacity:0.375;stroke:#b22222;stroke-opacity:0.375;" x="614.366406" xlink:href="#m0b91d538d0" y="120.485714"/>
     <use style="fill:#b22222;fill-opacity:0.375;stroke:#b22222;stroke-opacity:0.375;" x="636.864062" xlink:href="#m0b91d538d0" y="120.485714"/>
     <use style="fill:#b22222;fill-opacity:0.375;stroke:#b22222;stroke-opacity:0.375;" x="659.361719" xlink:href="#m0b91d538d0" y="120.485714"/>
     <use style="fill:#b22222;fill-opacity:0.375;stroke:#b22222;stroke-opacity:0.375;" x="681.859375" xlink:href="#m0b91d538d0" y="120.485714"/>
     <use style="fill:#b22222;fill-opacity:0.375;stroke:#b22222;stroke-opacity:0.375;" x="704.357031" xlink:href="#m0b91d538d0" y="85.590476"/>
    </g>
   </g>
   <g id="line2d_18">
    <defs>
     <path d="M 0 -5 
L -1.12257 -1.545085 
L -4.755283 -1.545085 
L -1.816356 0.59017 
L -2.938926 4.045085 
L -0 1.90983 
L 2.938926 4.045085 
L 1.816356 0.59017 
L 4.755283 -1.545085 
L 1.12257 -1.545085 
z
" id="m69a9ef83f5" style="stroke:#00008b;stroke-linejoin:bevel;stroke-opacity:0.375;"/>
    </defs>
    <g clip-path="url(#p1c3f18a4e4)">
     <use style="fill:#00008b;fill-opacity:0.375;stroke:#00008b;stroke-linejoin:bevel;stroke-opacity:0.375;" x="96.920312" xlink:href="#m69a9ef83f5" y="329.857143"/>
     <use style="fill:#00008b;fill-opacity:0.375;stroke:#00008b;stroke-linejoin:bevel;stroke-opacity:0.375;" x="119.417969" xlink:href="#m69a9ef83f5" y="329.857143"/>
     <use style="fill:#00008b;fill-opacity:0.375;stroke:#00008b;stroke-linejoin:bevel;stroke-opacity:0.375;" x="141.915625" xlink:href="#m69a9ef83f5" y="329.857143"/>
     <use style="fill:#00008b;fill-opacity:0.375;stroke:#00008b;stroke-linejoin:bevel;stroke-opacity:0.375;" x="164.413281" xlink:href="#m69a9ef83f5" y="329.857143"/>
     <use style="fill:#00008b;fill-opacity:0.375;stroke:#00008b;stroke-linejoin:bevel;stroke-opacity:0.375;" x="186.910937" xlink:href="#m69a9ef83f5" y="329.857143"/>
     <use style="fill:#00008b;fill-opacity:0.375;stroke:#00008b;stroke-linejoin:bevel;stroke-opacity:0.375;" x="209.408594" xlink:href="#m69a9ef83f5" y="225.171429"/>
     <use style="fill:#00008b;fill-opacity:0.375;stroke:#00008b;stroke-linejoin:bevel;stroke-opacity:0.375;" x="231.90625" xlink:href="#m69a9ef83f5" y="225.171429"/>
     <use style="fill:#00008b;fill-opacity:0.375;stroke:#00008b;stroke-linejoin:bevel;stroke-opacity:0.375;" x="254.403906" xlink:href="#m69a9ef83f5" y="225.171429"/>
     <use style="fill:#00008b;fill-opacity:0.375;stroke:#00008b;stroke-linejoin:bevel;stroke-opacity:0.375;" x="276.901562" xlink:href="#m69a9ef83f5" y="225.171429"/>
     <use style="fill:#00008b;fill-opacity:0.375;stroke:#00008b;stroke-linejoin:bevel;stroke-opacity:0.375;" x="299.399219" xlink:href="#m69a9ef83f5" y="225.171429"/>
     <use style="fill:#00008b;fill-opacity:0.375;stroke:#00008b;stroke-linejoin:bevel;stroke-opacity:0.375;" x="321.896875" xlink:href="#m69a9ef83f5" y="225.171429"/>
     <use style="fill:#00008b;fill-opacity:0.375;stroke:#00008b;stroke-linejoin:bevel;stroke-opacity:0.375;" x="344.394531" xlink:href="#m69a9ef83f5" y="190.27619"/>
     <use style="fill:#00008b;fill-opacity:0.375;stroke:#00008b;stroke-linejoin:bevel;stroke-opacity:0.375;" x="366.892187" xlink:href="#m69a9ef83f5" y="190.27619"/>
     <use style="fill:#00008b;fill-opacity:0.375;stroke:#00008b;stroke-linejoin:bevel;stroke-opacity:0.375;" x="389.389844" xlink:href="#m69a9ef83f5" y="190.27619"/>
     <use style="fill:#00008b;fill-opacity:0.375;stroke:#00008b;stroke-linejoin:bevel;stroke-opacity:0.375;" x="411.8875" xlink:href="#m69a9ef83f5" y="190.27619"/>
     <use style="fill:#00008b;fill-opacity:0.375;stroke:#00008b;stroke-linejoin:bevel;stroke-opacity:0.375;" x="434.385156" xlink:href="#m69a9ef83f5" y="190.27619"/>
     <use style="fill:#00008b;fill-opacity:0.375;stroke:#00008b;stroke-linejoin:bevel;stroke-opacity:0.375;" x="456.882812" xlink:href="#m69a9ef83f5" y="155.380952"/>
    </g>
   </g>
   <g id="line2d_19">
    <defs>
     <path d="M 0 -5 
L -1.12257 -1.545085 
L -4.755283 -1.545085 
L -1.816356 0.59017 
L -2.938926 4.045085 
L -0 1.90983 
L 2.938926 4.045085 
L 1.816356 0.59017 
L 4.755283 -1.545085 
L 1.12257 -1.545085 
z
" id="mecdcb6f300" style="stroke:#b22222;stroke-linejoin:bevel;stroke-opacity:0.375;"/>
    </defs>
    <g clip-path="url(#p1c3f18a4e4)">
     <use style="fill:#b22222;fill-opacity:0.375;stroke:#b22222;stroke-linejoin:bevel;stroke-opacity:0.375;" x="96.920312" xlink:href="#mecdcb6f300" y="329.857143"/>
     <use style="fill:#b22222;fill-opacity:0.375;stroke:#b22222;stroke-linejoin:bevel;stroke-opacity:0.375;" x="119.417969" xlink:href="#mecdcb6f300" y="329.857143"/>
     <use style="fill:#b22222;fill-opacity:0.375;stroke:#b22222;stroke-linejoin:bevel;stroke-opacity:0.375;" x="141.915625" xlink:href="#mecdcb6f300" y="329.857143"/>
     <use style="fill:#b22222;fill-opacity:0.375;stroke:#b22222;stroke-linejoin:bevel;stroke-opacity:0.375;" x="164.413281" xlink:href="#mecdcb6f300" y="294.961905"/>
     <use style="fill:#b22222;fill-opacity:0.375;stroke:#b22222;stroke-linejoin:bevel;stroke-opacity:0.375;" x="185.614675" xlink:href="#mecdcb6f300" y="-1"/>
    </g>
   </g>
   <g id="line2d_20">
    <defs>
     <path d="M -2.5 5 
L 0 2.5 
L 2.5 5 
L 5 2.5 
L 2.5 0 
L 5 -2.5 
L 2.5 -5 
L 0 -2.5 
L -2.5 -5 
L -5 -2.5 
L -2.5 0 
L -5 2.5 
z
" id="m48420253b5" style="stroke:#00008b;stroke-linejoin:miter;stroke-opacity:0.375;"/>
    </defs>
    <g clip-path="url(#p1c3f18a4e4)">
     <use style="fill:#00008b;fill-opacity:0.375;stroke:#00008b;stroke-linejoin:miter;stroke-opacity:0.375;" x="96.920312" xlink:href="#m48420253b5" y="329.857143"/>
     <use style="fill:#00008b;fill-opacity:0.375;stroke:#00008b;stroke-linejoin:miter;stroke-opacity:0.375;" x="119.417969" xlink:href="#m48420253b5" y="260.066667"/>
     <use style="fill:#00008b;fill-opacity:0.375;stroke:#00008b;stroke-linejoin:miter;stroke-opacity:0.375;" x="141.915625" xlink:href="#m48420253b5" y="260.066667"/>
     <use style="fill:#00008b;fill-opacity:0.375;stroke:#00008b;stroke-linejoin:miter;stroke-opacity:0.375;" x="164.413281" xlink:href="#m48420253b5" y="225.171429"/>
     <use style="fill:#00008b;fill-opacity:0.375;stroke:#00008b;stroke-linejoin:miter;stroke-opacity:0.375;" x="186.910937" xlink:href="#m48420253b5" y="225.171429"/>
     <use style="fill:#00008b;fill-opacity:0.375;stroke:#00008b;stroke-linejoin:miter;stroke-opacity:0.375;" x="209.408594" xlink:href="#m48420253b5" y="225.171429"/>
     <use style="fill:#00008b;fill-opacity:0.375;stroke:#00008b;stroke-linejoin:miter;stroke-opacity:0.375;" x="231.90625" xlink:href="#m48420253b5" y="225.171429"/>
     <use style="fill:#00008b;fill-opacity:0.375;stroke:#00008b;stroke-linejoin:miter;stroke-opacity:0.375;" x="254.403906" xlink:href="#m48420253b5" y="190.27619"/>
    </g>
   </g>
   <g id="line2d_21">
    <defs>
     <path d="M -2.5 5 
L 0 2.5 
L 2.5 5 
L 5 2.5 
L 2.5 0 
L 5 -2.5 
L 2.5 -5 
L 0 -2.5 
L -2.5 -5 
L -5 -2.5 
L -2.5 0 
L -5 2.5 
z
" id="m7818917cab" style="stroke:#b22222;stroke-linejoin:miter;stroke-opacity:0.375;"/>
    </defs>
    <g clip-path="url(#p1c3f18a4e4)">
     <use style="fill:#b22222;fill-opacity:0.375;stroke:#b22222;stroke-linejoin:miter;stroke-opacity:0.375;" x="96.920312" xlink:href="#m7818917cab" y="329.857143"/>
     <use style="fill:#b22222;fill-opacity:0.375;stroke:#b22222;stroke-linejoin:miter;stroke-opacity:0.375;" x="119.417969" xlink:href="#m7818917cab" y="260.066667"/>
     <use style="fill:#b22222;fill-opacity:0.375;stroke:#b22222;stroke-linejoin:miter;stroke-opacity:0.375;" x="141.915625" xlink:href="#m7818917cab" y="260.066667"/>
     <use style="fill:#b22222;fill-opacity:0.375;stroke:#b22222;stroke-linejoin:miter;stroke-opacity:0.375;" x="164.413281" xlink:href="#m7818917cab" y="225.171429"/>
     <use style="fill:#b22222;fill-opacity:0.375;stroke:#b22222;stroke-linejoin:miter;stroke-opacity:0.375;" x="186.910937" xlink:href="#m7818917cab" y="225.171429"/>
     <use style="fill:#b22222;fill-opacity:0.375;stroke:#b22222;stroke-linejoin:miter;stroke-opacity:0.375;" x="209.408594" xlink:href="#m7818917cab" y="225.171429"/>
     <use style="fill:#b22222;fill-opacity:0.375;stroke:#b22222;stroke-linejoin:miter;stroke-opacity:0.375;" x="231.90625" xlink:href="#m7818917cab" y="225.171429"/>
     <use style="fill:#b22222;fill-opacity:0.375;stroke:#b22222;stroke-linejoin:miter;stroke-opacity:0.375;" x="254.403906" xlink:href="#m7818917cab" y="190.27619"/>
    </g>
   </g>
   <g id="line2d_22">
    <defs>
     <path d="M 0 -5 
L -5 5 
L 5 5 
z
" id="m54b56723ba" style="stroke:#00008b;stroke-linejoin:miter;stroke-opacity:0.375;"/>
    </defs>
    <g clip-path="url(#p1c3f18a4e4)">
     <use style="fill:#00008b;fill-opacity:0.375;stroke:#00008b;stroke-linejoin:miter;stroke-opacity:0.375;" x="96.920312" xlink:href="#m54b56723ba" y="329.857143"/>
     <use style="fill:#00008b;fill-opacity:0.375;stroke:#00008b;stroke-linejoin:miter;stroke-opacity:0.375;" x="119.417969" xlink:href="#m54b56723ba" y="329.857143"/>
     <use style="fill:#00008b;fill-opacity:0.375;stroke:#00008b;stroke-linejoin:miter;stroke-opacity:0.375;" x="141.915625" xlink:href="#m54b56723ba" y="294.961905"/>
     <use style="fill:#00008b;fill-opacity:0.375;stroke:#00008b;stroke-linejoin:miter;stroke-opacity:0.375;" x="164.413281" xlink:href="#m54b56723ba" y="294.961905"/>
     <use style="fill:#00008b;fill-opacity:0.375;stroke:#00008b;stroke-linejoin:miter;stroke-opacity:0.375;" x="186.910937" xlink:href="#m54b56723ba" y="294.961905"/>
     <use style="fill:#00008b;fill-opacity:0.375;stroke:#00008b;stroke-linejoin:miter;stroke-opacity:0.375;" x="209.408594" xlink:href="#m54b56723ba" y="294.961905"/>
     <use style="fill:#00008b;fill-opacity:0.375;stroke:#00008b;stroke-linejoin:miter;stroke-opacity:0.375;" x="231.90625" xlink:href="#m54b56723ba" y="294.961905"/>
     <use style="fill:#00008b;fill-opacity:0.375;stroke:#00008b;stroke-linejoin:miter;stroke-opacity:0.375;" x="254.403906" xlink:href="#m54b56723ba" y="294.961905"/>
     <use style="fill:#00008b;fill-opacity:0.375;stroke:#00008b;stroke-linejoin:miter;stroke-opacity:0.375;" x="276.901562" xlink:href="#m54b56723ba" y="294.961905"/>
     <use style="fill:#00008b;fill-opacity:0.375;stroke:#00008b;stroke-linejoin:miter;stroke-opacity:0.375;" x="299.399219" xlink:href="#m54b56723ba" y="294.961905"/>
     <use style="fill:#00008b;fill-opacity:0.375;stroke:#00008b;stroke-linejoin:miter;stroke-opacity:0.375;" x="321.896875" xlink:href="#m54b56723ba" y="294.961905"/>
     <use style="fill:#00008b;fill-opacity:0.375;stroke:#00008b;stroke-linejoin:miter;stroke-opacity:0.375;" x="344.394531" xlink:href="#m54b56723ba" y="294.961905"/>
     <use style="fill:#00008b;fill-opacity:0.375;stroke:#00008b;stroke-linejoin:miter;stroke-opacity:0.375;" x="366.892187" xlink:href="#m54b56723ba" y="294.961905"/>
     <use style="fill:#00008b;fill-opacity:0.375;stroke:#00008b;stroke-linejoin:miter;stroke-opacity:0.375;" x="389.389844" xlink:href="#m54b56723ba" y="294.961905"/>
     <use style="fill:#00008b;fill-opacity:0.375;stroke:#00008b;stroke-linejoin:miter;stroke-opacity:0.375;" x="411.8875" xlink:href="#m54b56723ba" y="294.961905"/>
     <use style="fill:#00008b;fill-opacity:0.375;stroke:#00008b;stroke-linejoin:miter;stroke-opacity:0.375;" x="434.385156" xlink:href="#m54b56723ba" y="294.961905"/>
     <use style="fill:#00008b;fill-opacity:0.375;stroke:#00008b;stroke-linejoin:miter;stroke-opacity:0.375;" x="456.882812" xlink:href="#m54b56723ba" y="225.171429"/>
    </g>
   </g>
   <g id="line2d_23">
    <defs>
     <path d="M 0 -5 
L -5 5 
L 5 5 
z
" id="m3fd8c570d7" style="stroke:#b22222;stroke-linejoin:miter;stroke-opacity:0.375;"/>
    </defs>
    <g clip-path="url(#p1c3f18a4e4)">
     <use style="fill:#b22222;fill-opacity:0.375;stroke:#b22222;stroke-linejoin:miter;stroke-opacity:0.375;" x="96.920312" xlink:href="#m3fd8c570d7" y="364.752381"/>
     <use style="fill:#b22222;fill-opacity:0.375;stroke:#b22222;stroke-linejoin:miter;stroke-opacity:0.375;" x="119.417969" xlink:href="#m3fd8c570d7" y="364.752381"/>
     <use style="fill:#b22222;fill-opacity:0.375;stroke:#b22222;stroke-linejoin:miter;stroke-opacity:0.375;" x="141.915625" xlink:href="#m3fd8c570d7" y="225.171429"/>
     <use style="fill:#b22222;fill-opacity:0.375;stroke:#b22222;stroke-linejoin:miter;stroke-opacity:0.375;" x="164.413281" xlink:href="#m3fd8c570d7" y="225.171429"/>
     <use style="fill:#b22222;fill-opacity:0.375;stroke:#b22222;stroke-linejoin:miter;stroke-opacity:0.375;" x="186.910937" xlink:href="#m3fd8c570d7" y="225.171429"/>
     <use style="fill:#b22222;fill-opacity:0.375;stroke:#b22222;stroke-linejoin:miter;stroke-opacity:0.375;" x="209.408594" xlink:href="#m3fd8c570d7" y="155.380952"/>
     <use style="fill:#b22222;fill-opacity:0.375;stroke:#b22222;stroke-linejoin:miter;stroke-opacity:0.375;" x="231.90625" xlink:href="#m3fd8c570d7" y="155.380952"/>
     <use style="fill:#b22222;fill-opacity:0.375;stroke:#b22222;stroke-linejoin:miter;stroke-opacity:0.375;" x="254.403906" xlink:href="#m3fd8c570d7" y="155.380952"/>
     <use style="fill:#b22222;fill-opacity:0.375;stroke:#b22222;stroke-linejoin:miter;stroke-opacity:0.375;" x="276.901562" xlink:href="#m3fd8c570d7" y="155.380952"/>
     <use style="fill:#b22222;fill-opacity:0.375;stroke:#b22222;stroke-linejoin:miter;stroke-opacity:0.375;" x="299.399219" xlink:href="#m3fd8c570d7" y="155.380952"/>
     <use style="fill:#b22222;fill-opacity:0.375;stroke:#b22222;stroke-linejoin:miter;stroke-opacity:0.375;" x="321.896875" xlink:href="#m3fd8c570d7" y="155.380952"/>
     <use style="fill:#b22222;fill-opacity:0.375;stroke:#b22222;stroke-linejoin:miter;stroke-opacity:0.375;" x="344.394531" xlink:href="#m3fd8c570d7" y="155.380952"/>
     <use style="fill:#b22222;fill-opacity:0.375;stroke:#b22222;stroke-linejoin:miter;stroke-opacity:0.375;" x="366.892187" xlink:href="#m3fd8c570d7" y="155.380952"/>
     <use style="fill:#b22222;fill-opacity:0.375;stroke:#b22222;stroke-linejoin:miter;stroke-opacity:0.375;" x="389.389844" xlink:href="#m3fd8c570d7" y="155.380952"/>
     <use style="fill:#b22222;fill-opacity:0.375;stroke:#b22222;stroke-linejoin:miter;stroke-opacity:0.375;" x="411.8875" xlink:href="#m3fd8c570d7" y="155.380952"/>
     <use style="fill:#b22222;fill-opacity:0.375;stroke:#b22222;stroke-linejoin:miter;stroke-opacity:0.375;" x="434.385156" xlink:href="#m3fd8c570d7" y="155.380952"/>
     <use style="fill:#b22222;fill-opacity:0.375;stroke:#b22222;stroke-linejoin:miter;stroke-opacity:0.375;" x="456.882812" xlink:href="#m3fd8c570d7" y="155.380952"/>
    </g>
   </g>
   <g id="patch_4">
    <path d="M 51.925 382.2 
L 51.925 15.8 
" style="fill:none;stroke:#000000;stroke-linecap:square;stroke-linejoin:miter;stroke-width:0.8;"/>
   </g>
   <g id="patch_5">
    <path d="M 771.85 382.2 
L 771.85 15.8 
" style="fill:none;stroke:#000000;stroke-linecap:square;stroke-linejoin:miter;stroke-width:0.8;"/>
   </g>
   <g id="patch_6">
    <path d="M 51.925 382.2 
L 771.85 382.2 
" style="fill:none;stroke:#000000;stroke-linecap:square;stroke-linejoin:miter;stroke-width:0.8;"/>
   </g>
   <g id="patch_7">
    <path d="M 51.925 15.8 
L 771.85 15.8 
" style="fill:none;stroke:#000000;stroke-linecap:square;stroke-linejoin:miter;stroke-width:0.8;"/>
   </g>
   <g id="text_16">
    <!-- first positive -->
    <g transform="translate(58.060312 52.46592)scale(0.14 -0.14)">
     <use xlink:href="#DejaVuSans-102"/>
     <use x="35.205078" xlink:href="#DejaVuSans-105"/>
     <use x="62.988281" xlink:href="#DejaVuSans-114"/>
     <use x="104.101562" xlink:href="#DejaVuSans-115"/>
     <use x="156.201172" xlink:href="#DejaVuSans-116"/>
     <use x="195.410156" xlink:href="#DejaVuSans-32"/>
     <use x="227.197266" xlink:href="#DejaVuSans-112"/>
     <use x="290.673828" xlink:href="#DejaVuSans-111"/>
     <use x="351.855469" xlink:href="#DejaVuSans-115"/>
     <use x="403.955078" xlink:href="#DejaVuSans-105"/>
     <use x="431.738281" xlink:href="#DejaVuSans-116"/>
     <use x="470.947266" xlink:href="#DejaVuSans-105"/>
     <use x="498.730469" xlink:href="#DejaVuSans-118"/>
     <use x="557.910156" xlink:href="#DejaVuSans-101"/>
    </g>
    <!-- test -->
    <g transform="translate(87.977656 68.142857)scale(0.14 -0.14)">
     <use xlink:href="#DejaVuSans-116"/>
     <use x="39.208984" xlink:href="#DejaVuSans-101"/>
     <use x="100.732422" xlink:href="#DejaVuSans-115"/>
     <use x="152.832031" xlink:href="#DejaVuSans-116"/>
    </g>
   </g>
   <g id="legend_1">
    <g id="patch_8">
     <path d="M 783.05 284.595 
L 921.5675 284.595 
Q 924.7675 284.595 924.7675 281.395 
L 924.7675 118.6 
Q 924.7675 115.4 921.5675 115.4 
L 783.05 115.4 
Q 779.85 115.4 779.85 118.6 
L 779.85 281.395 
Q 779.85 284.595 783.05 284.595 
z
" style="fill:#ffffff;opacity:0.8;stroke:#cccccc;stroke-linejoin:miter;"/>
    </g>
    <g id="patch_9">
     <path d="M 786.25 133.9575 
L 818.25 133.9575 
L 818.25 122.7575 
L 786.25 122.7575 
z
" style="fill:#b22222;opacity:0.25;"/>
    </g>
    <g id="text_17">
     <!-- residents -->
     <g transform="translate(831.05 133.9575)scale(0.16 -0.16)">
      <use xlink:href="#DejaVuSans-114"/>
      <use x="41.082031" xlink:href="#DejaVuSans-101"/>
      <use x="102.605469" xlink:href="#DejaVuSans-115"/>
      <use x="154.705078" xlink:href="#DejaVuSans-105"/>
      <use x="182.488281" xlink:href="#DejaVuSans-100"/>
      <use x="245.964844" xlink:href="#DejaVuSans-101"/>
      <use x="307.488281" xlink:href="#DejaVuSans-110"/>
      <use x="370.867188" xlink:href="#DejaVuSans-116"/>
      <use x="410.076172" xlink:href="#DejaVuSans-115"/>
     </g>
    </g>
    <g id="patch_10">
     <path d="M 786.25 157.4425 
L 818.25 157.4425 
L 818.25 146.2425 
L 786.25 146.2425 
z
" style="fill:#00008b;opacity:0.25;"/>
    </g>
    <g id="text_18">
     <!-- employees -->
     <defs>
      <path d="M 52 44.1875 
Q 55.375 50.25 60.0625 53.125 
Q 64.75 56 71.09375 56 
Q 79.640625 56 84.28125 50.015625 
Q 88.921875 44.046875 88.921875 33.015625 
L 88.921875 0 
L 79.890625 0 
L 79.890625 32.71875 
Q 79.890625 40.578125 77.09375 44.375 
Q 74.3125 48.1875 68.609375 48.1875 
Q 61.625 48.1875 57.5625 43.546875 
Q 53.515625 38.921875 53.515625 30.90625 
L 53.515625 0 
L 44.484375 0 
L 44.484375 32.71875 
Q 44.484375 40.625 41.703125 44.40625 
Q 38.921875 48.1875 33.109375 48.1875 
Q 26.21875 48.1875 22.15625 43.53125 
Q 18.109375 38.875 18.109375 30.90625 
L 18.109375 0 
L 9.078125 0 
L 9.078125 54.6875 
L 18.109375 54.6875 
L 18.109375 46.1875 
Q 21.1875 51.21875 25.484375 53.609375 
Q 29.78125 56 35.6875 56 
Q 41.65625 56 45.828125 52.96875 
Q 50 49.953125 52 44.1875 
z
" id="DejaVuSans-109"/>
      <path d="M 9.421875 75.984375 
L 18.40625 75.984375 
L 18.40625 0 
L 9.421875 0 
z
" id="DejaVuSans-108"/>
     </defs>
     <g transform="translate(831.05 157.4425)scale(0.16 -0.16)">
      <use xlink:href="#DejaVuSans-101"/>
      <use x="61.523438" xlink:href="#DejaVuSans-109"/>
      <use x="158.935547" xlink:href="#DejaVuSans-112"/>
      <use x="222.412109" xlink:href="#DejaVuSans-108"/>
      <use x="250.195312" xlink:href="#DejaVuSans-111"/>
      <use x="311.376953" xlink:href="#DejaVuSans-121"/>
      <use x="370.556641" xlink:href="#DejaVuSans-101"/>
      <use x="432.080078" xlink:href="#DejaVuSans-101"/>
      <use x="493.603516" xlink:href="#DejaVuSans-115"/>
     </g>
    </g>
    <g id="line2d_24">
     <path d="M 786.25 175.3275 
L 818.25 175.3275 
" style="fill:none;stroke:#000000;stroke-linecap:square;stroke-width:5;"/>
    </g>
    <g id="line2d_25"/>
    <g id="text_19">
     <!-- simulation -->
     <defs>
      <path d="M 8.5 21.578125 
L 8.5 54.6875 
L 17.484375 54.6875 
L 17.484375 21.921875 
Q 17.484375 14.15625 20.5 10.265625 
Q 23.53125 6.390625 29.59375 6.390625 
Q 36.859375 6.390625 41.078125 11.03125 
Q 45.3125 15.671875 45.3125 23.6875 
L 45.3125 54.6875 
L 54.296875 54.6875 
L 54.296875 0 
L 45.3125 0 
L 45.3125 8.40625 
Q 42.046875 3.421875 37.71875 1 
Q 33.40625 -1.421875 27.6875 -1.421875 
Q 18.265625 -1.421875 13.375 4.4375 
Q 8.5 10.296875 8.5 21.578125 
z
M 31.109375 56 
z
" id="DejaVuSans-117"/>
     </defs>
     <g transform="translate(831.05 180.9275)scale(0.16 -0.16)">
      <use xlink:href="#DejaVuSans-115"/>
      <use x="52.099609" xlink:href="#DejaVuSans-105"/>
      <use x="79.882812" xlink:href="#DejaVuSans-109"/>
      <use x="177.294922" xlink:href="#DejaVuSans-117"/>
      <use x="240.673828" xlink:href="#DejaVuSans-108"/>
      <use x="268.457031" xlink:href="#DejaVuSans-97"/>
      <use x="329.736328" xlink:href="#DejaVuSans-116"/>
      <use x="368.945312" xlink:href="#DejaVuSans-105"/>
      <use x="396.728516" xlink:href="#DejaVuSans-111"/>
      <use x="457.910156" xlink:href="#DejaVuSans-110"/>
     </g>
    </g>
    <g id="line2d_26"/>
    <g id="line2d_27">
     <defs>
      <path d="M 0 5 
C 1.326016 5 2.597899 4.473168 3.535534 3.535534 
C 4.473168 2.597899 5 1.326016 5 0 
C 5 -1.326016 4.473168 -2.597899 3.535534 -3.535534 
C 2.597899 -4.473168 1.326016 -5 0 -5 
C -1.326016 -5 -2.597899 -4.473168 -3.535534 -3.535534 
C -4.473168 -2.597899 -5 -1.326016 -5 0 
C -5 1.326016 -4.473168 2.597899 -3.535534 3.535534 
C -2.597899 4.473168 -1.326016 5 0 5 
z
" id="mef485e8a26" style="stroke:#000000;"/>
     </defs>
     <g>
      <use style="stroke:#000000;" x="802.25" xlink:href="#mef485e8a26" y="198.8125"/>
     </g>
    </g>
    <g id="text_20">
     <!-- outbreak 1 -->
     <defs>
      <path d="M 48.6875 27.296875 
Q 48.6875 37.203125 44.609375 42.84375 
Q 40.53125 48.484375 33.40625 48.484375 
Q 26.265625 48.484375 22.1875 42.84375 
Q 18.109375 37.203125 18.109375 27.296875 
Q 18.109375 17.390625 22.1875 11.75 
Q 26.265625 6.109375 33.40625 6.109375 
Q 40.53125 6.109375 44.609375 11.75 
Q 48.6875 17.390625 48.6875 27.296875 
z
M 18.109375 46.390625 
Q 20.953125 51.265625 25.265625 53.625 
Q 29.59375 56 35.59375 56 
Q 45.5625 56 51.78125 48.09375 
Q 58.015625 40.1875 58.015625 27.296875 
Q 58.015625 14.40625 51.78125 6.484375 
Q 45.5625 -1.421875 35.59375 -1.421875 
Q 29.59375 -1.421875 25.265625 0.953125 
Q 20.953125 3.328125 18.109375 8.203125 
L 18.109375 0 
L 9.078125 0 
L 9.078125 75.984375 
L 18.109375 75.984375 
z
" id="DejaVuSans-98"/>
      <path d="M 9.078125 75.984375 
L 18.109375 75.984375 
L 18.109375 31.109375 
L 44.921875 54.6875 
L 56.390625 54.6875 
L 27.390625 29.109375 
L 57.625 0 
L 45.90625 0 
L 18.109375 26.703125 
L 18.109375 0 
L 9.078125 0 
z
" id="DejaVuSans-107"/>
     </defs>
     <g transform="translate(831.05 204.4125)scale(0.16 -0.16)">
      <use xlink:href="#DejaVuSans-111"/>
      <use x="61.181641" xlink:href="#DejaVuSans-117"/>
      <use x="124.560547" xlink:href="#DejaVuSans-116"/>
      <use x="163.769531" xlink:href="#DejaVuSans-98"/>
      <use x="227.246094" xlink:href="#DejaVuSans-114"/>
      <use x="268.328125" xlink:href="#DejaVuSans-101"/>
      <use x="329.851562" xlink:href="#DejaVuSans-97"/>
      <use x="391.130859" xlink:href="#DejaVuSans-107"/>
      <use x="449.041016" xlink:href="#DejaVuSans-32"/>
      <use x="480.828125" xlink:href="#DejaVuSans-49"/>
     </g>
    </g>
    <g id="line2d_28"/>
    <g id="line2d_29">
     <defs>
      <path d="M 0 -5 
L -1.12257 -1.545085 
L -4.755283 -1.545085 
L -1.816356 0.59017 
L -2.938926 4.045085 
L -0 1.90983 
L 2.938926 4.045085 
L 1.816356 0.59017 
L 4.755283 -1.545085 
L 1.12257 -1.545085 
z
" id="m241e14b701" style="stroke:#000000;stroke-linejoin:bevel;"/>
     </defs>
     <g>
      <use style="stroke:#000000;stroke-linejoin:bevel;" x="802.25" xlink:href="#m241e14b701" y="222.2975"/>
     </g>
    </g>
    <g id="text_21">
     <!-- outbreak 2 -->
     <g transform="translate(831.05 227.8975)scale(0.16 -0.16)">
      <use xlink:href="#DejaVuSans-111"/>
      <use x="61.181641" xlink:href="#DejaVuSans-117"/>
      <use x="124.560547" xlink:href="#DejaVuSans-116"/>
      <use x="163.769531" xlink:href="#DejaVuSans-98"/>
      <use x="227.246094" xlink:href="#DejaVuSans-114"/>
      <use x="268.328125" xlink:href="#DejaVuSans-101"/>
      <use x="329.851562" xlink:href="#DejaVuSans-97"/>
      <use x="391.130859" xlink:href="#DejaVuSans-107"/>
      <use x="449.041016" xlink:href="#DejaVuSans-32"/>
      <use x="480.828125" xlink:href="#DejaVuSans-50"/>
     </g>
    </g>
    <g id="line2d_30"/>
    <g id="line2d_31">
     <defs>
      <path d="M -2.5 5 
L 0 2.5 
L 2.5 5 
L 5 2.5 
L 2.5 0 
L 5 -2.5 
L 2.5 -5 
L 0 -2.5 
L -2.5 -5 
L -5 -2.5 
L -2.5 0 
L -5 2.5 
z
" id="m2d8a7fa0cb" style="stroke:#000000;stroke-linejoin:miter;"/>
     </defs>
     <g>
      <use style="stroke:#000000;stroke-linejoin:miter;" x="802.25" xlink:href="#m2d8a7fa0cb" y="245.7825"/>
     </g>
    </g>
    <g id="text_22">
     <!-- outbreak 3 -->
     <g transform="translate(831.05 251.3825)scale(0.16 -0.16)">
      <use xlink:href="#DejaVuSans-111"/>
      <use x="61.181641" xlink:href="#DejaVuSans-117"/>
      <use x="124.560547" xlink:href="#DejaVuSans-116"/>
      <use x="163.769531" xlink:href="#DejaVuSans-98"/>
      <use x="227.246094" xlink:href="#DejaVuSans-114"/>
      <use x="268.328125" xlink:href="#DejaVuSans-101"/>
      <use x="329.851562" xlink:href="#DejaVuSans-97"/>
      <use x="391.130859" xlink:href="#DejaVuSans-107"/>
      <use x="449.041016" xlink:href="#DejaVuSans-32"/>
      <use x="480.828125" xlink:href="#DejaVuSans-51"/>
     </g>
    </g>
    <g id="line2d_32"/>
    <g id="line2d_33">
     <defs>
      <path d="M 0 -5 
L -5 5 
L 5 5 
z
" id="m096b224b6f" style="stroke:#000000;stroke-linejoin:miter;"/>
     </defs>
     <g>
      <use style="stroke:#000000;stroke-linejoin:miter;" x="802.25" xlink:href="#m096b224b6f" y="269.2675"/>
     </g>
    </g>
    <g id="text_23">
     <!-- outbreak 4 -->
     <g transform="translate(831.05 274.8675)scale(0.16 -0.16)">
      <use xlink:href="#DejaVuSans-111"/>
      <use x="61.181641" xlink:href="#DejaVuSans-117"/>
      <use x="124.560547" xlink:href="#DejaVuSans-116"/>
      <use x="163.769531" xlink:href="#DejaVuSans-98"/>
      <use x="227.246094" xlink:href="#DejaVuSans-114"/>
      <use x="268.328125" xlink:href="#DejaVuSans-101"/>
      <use x="329.851562" xlink:href="#DejaVuSans-97"/>
      <use x="391.130859" xlink:href="#DejaVuSans-107"/>
      <use x="449.041016" xlink:href="#DejaVuSans-32"/>
      <use x="480.828125" xlink:href="#DejaVuSans-52"/>
     </g>
    </g>
   </g>
  </g>
 </g>
 <defs>
  <clipPath id="p1c3f18a4e4">
   <rect height="366.4" width="719.925" x="51.925" y="15.8"/>
  </clipPath>
 </defs>
</svg>
